<?xml version="1.0" encoding="utf-8"?>
<svg xmlns="http://www.w3.org/2000/svg" viewBox="0 0 64 64" width="512" height="512">
  <radialGradient id="_xtCd6Z~0zUpBR2gTzCVna" cx="32.617" cy="29.894" r="19.295" gradientTransform="matrix(1 0 0 -1 0 66)" gradientUnits="userSpaceOnUse">
    <stop offset="0" stop-color="#f4e9c3" />
    <stop offset=".219" stop-color="#f8eecd" />
    <stop offset=".644" stop-color="#fdf4dc" />
    <stop offset="1" stop-color="#fff6e1" />
  </radialGradient>
  <path fill="url(#_xtCd6Z~0zUpBR2gTzCVna)" d="M60,34H43.17c-1.49,0-2.87-1-3.13-2.46C39.71,29.64,41.17,28,43,28h15c2.47,0,4.45-2.29,3.91-4.86c-0.4-1.87-2.16-3.14-4.08-3.14H42.09c-0.88,0-1.73-0.52-1.99-1.36C39.67,17.26,40.68,16,42,16h14.38c1.18,0,2.28-0.75,2.55-1.89C59.32,12.46,58.08,11,56.5,11h-7c-0.83,0-1.5-0.67-1.5-1.5S48.67,8,49.5,8h1.88c1.18,0,2.28-0.75,2.55-1.89C54.32,4.46,53.08,3,51.5,3H12.62c-1.18,0-2.28,0.75-2.55,1.89C9.68,6.54,10.92,8,12.5,8h1.52c0.89,0,1.74,0.53,1.99,1.37c0.41,1.38-0.6,2.63-1.9,2.63H8.17c-1.92,0-3.69,1.27-4.08,3.15C3.55,17.71,5.52,20,8,20h7c1.1,0,2,0.9,2,2c0,0.55-0.22,1.05-0.59,1.41C16.05,23.78,15.55,24,15,24H5.5C4.12,24,3,25.12,3,26.5c0,0.69,0.28,1.32,0.73,1.77C4.18,28.72,4.81,29,5.5,29H19c1.1,0,2,0.9,2,2c0,0.55-0.22,1.05-0.59,1.41C20.05,32.78,19.55,33,19,33H4.63c-1.52,0-2.94,0.92-3.4,2.37C0.47,37.77,2.25,40,4.55,40h2.37c0.87,0,1.71,0.51,1.98,1.35C9.33,42.73,8.32,44,7,44H4.62c-1.17,0-2.27,0.74-2.55,1.88C1.68,47.53,2.92,49,4.5,49h1.83c1.72,0,3.31,1.16,3.61,2.85C10.34,54.07,8.65,56,6.5,56H6.17H5.46C4.1,56,3,57.1,3,58.46v0.08c0,0.84,0.42,1.57,1.05,2.02C4.45,60.83,4.94,61,5.46,61h51.08c0.53,0,1.02-0.17,1.42-0.45c0.63-0.44,1.04-1.18,1.04-2.01v-0.08C59,57.1,57.9,56,56.54,56H55h-2c-0.55,0-1.05-0.22-1.41-0.59C51.22,55.05,51,54.55,51,54c0-1.1,0.9-2,2-2h3.4c1.51,0,2.94-0.91,3.41-2.35C60.6,47.25,58.8,45,56.5,45H42.62c-1.18,0-2.28-0.75-2.55-1.89C39.68,41.46,40.92,40,42.5,40h17.38c1.31,0,2.55-0.77,2.96-2.01C63.51,35.92,61.97,34,60,34z" />
  <linearGradient id="_xtCd6Z~0zUpBR2gTzCVnb" x1="32" x2="32" y1="80.167" y2="13.328" gradientTransform="matrix(1 0 0 -1 0 64)" gradientUnits="userSpaceOnUse">
    <stop offset="0" stop-color="#3cb5ea" />
    <stop offset="1" stop-color="#7ddefb" />
  </linearGradient>
  <path fill="url(#_xtCd6Z~0zUpBR2gTzCVnb)" d="M57.707,28.874L35.126,6.293c-1.724-1.724-4.528-1.724-6.252,0L6.293,28.874c-1.724,1.724-1.724,4.528,0,6.252l22.581,22.581C29.736,58.569,30.868,59,32,59s2.264-0.431,3.126-1.293l22.581-22.581C59.431,33.402,59.431,30.598,57.707,28.874z M32,38.137L25.863,32L32,25.863L38.137,32L32,38.137z" />
  <linearGradient id="_xtCd6Z~0zUpBR2gTzCVnc" x1="45.5" x2="45.5" y1="64.36" y2="-3.197" gradientTransform="matrix(1 0 0 -1 0 64)" gradientUnits="userSpaceOnUse">
    <stop offset="0" stop-color="#155cde" />
    <stop offset=".486" stop-color="#2185e6" />
    <stop offset="1" stop-color="#2eb5f0" />
  </linearGradient>
  <path fill="url(#_xtCd6Z~0zUpBR2gTzCVnc)" d="M43.348,14.515L32,25.863L38.137,32L32,38.137l11.348,11.348l14.359-14.359c1.724-1.724,1.724-4.528,0-6.252L43.348,14.515z" />
  <linearGradient id="_xtCd6Z~0zUpBR2gTzCVnd" x1="32" x2="32" y1="40.655" y2="-14.092" gradientTransform="matrix(1 0 0 -1 0 64)" gradientUnits="userSpaceOnUse">
    <stop offset="0" stop-color="#155cde" />
    <stop offset=".122" stop-color="#196ae1" />
    <stop offset=".509" stop-color="#2493e9" />
    <stop offset=".815" stop-color="#2bacee" />
    <stop offset="1" stop-color="#2eb5f0" />
  </linearGradient>
  <path fill="url(#_xtCd6Z~0zUpBR2gTzCVnd)" d="M20.652,49.485l8.222,8.222C29.736,58.569,30.868,59,32,59s2.264-0.431,3.126-1.293l8.222-8.222L32,38.137L20.652,49.485z" />
</svg>